 <svg  version="1.0" xmlns="http://www.w3.org/2000/svg"  width="1350.000000pt" height="885.000000pt" viewBox="0 0 1350.000000 885.000000"  preserveAspectRatio="xMidYMid meet">  <g transform="translate(0.000000,885.000000) scale(0.100000,-0.100000)" fill="#17b7ad" stroke="none"> <path d="M3390 5536 c0 -22 41 -47 71 -44 50 5 52 34 2 34 -21 0 -46 4 -55 8 -10 4 -18 5 -18 2z"/> <path d="M3265 5510 c-3 -6 1 -13 10 -16 19 -8 30 0 20 15 -8 14 -22 14 -30 1z"/> <path d="M3350 5505 c0 -8 7 -15 15 -15 8 0 15 7 15 15 0 8 -7 15 -15 15 -8 0 -15 -7 -15 -15z"/> <path d="M3540 5488 c0 -17 3 -19 12 -10 17 17 55 15 62 -4 4 -12 14 -14 35 -9 24 5 33 2 43 -14 9 -15 23 -21 50 -21 31 0 38 -4 38 -19 0 -16 5 -18 40 -14 32 5 40 2 40 -10 0 -8 16 -25 35 -37 19 -12 35 -26 35 -31 0 -5 7 -9 15 -9 8 0 15 -7 15 -15 0 -10 10 -15 30 -15 17 0 33 -6 36 -14 3 -7 30 -30 60 -51 30 -21 54 -42 54 -46 0 -12 61 -79 72 -79 22 0 1 32 -67 104 -76 80 -128 116 -165 116 -11 0 -20 6 -20 13 0 23 -121 107 -154 107 -13 0 -26 7 -30 15 -3 8 -15 15 -27 15 -12 0 -38 12 -57 27 -23 17 -37 23 -40 15 -4 -14 -42 -16 -42 -2 0 6 -16 10 -35 10 -29 0 -35 -4 -35 -22z"/> <path d="M3386 5398 c4 -24 8 -45 10 -47 6 -7 16 68 9 78 -15 25 -25 9 -19 -31z"/> <path d="M3447 5433 c-4 -3 -7 -15 -7 -25 0 -26 24 -17 28 10 3 21 -8 29 -21 15z"/> <path d="M3237 5414 c-10 -11 3 -24 24 -24 10 0 19 7 19 15 0 15 -31 21 -43 9z"/> <path d="M3320 5406 c0 -8 5 -18 10 -21 6 -3 10 3 10 14 0 12 -4 21 -10 21 -5 0 -10 -6 -10 -14z"/> <path d="M3620 5390 c0 -11 5 -20 10 -20 6 0 10 9 10 20 0 11 -4 20 -10 20 -5 0 -10 -9 -10 -20z"/> <path d="M3515 5360 c-10 -11 -16 -20 -12 -20 3 0 12 -2 20 -6 8 -3 21 5 31 20 16 25 16 26 -2 26 -10 0 -27 -9 -37 -20z"/> <path d="M3742 5339 c2 -6 8 -10 13 -10 5 0 11 4 13 10 2 6 -4 11 -13 11 -9 0 -15 -5 -13 -11z"/> <path d="M3806 5323 c-4 -12 -14 -24 -22 -27 -20 -7 -9 -26 15 -26 21 0 34 36 22 58 -7 13 -10 12 -15 -5z"/> <path d="M3666 5305 c-15 -12 -17 -18 -8 -27 9 -9 13 -7 18 5 8 21 34 22 34 2 0 -16 16 -20 24 -6 3 5 -5 16 -19 25 -29 19 -25 19 -49 1z"/> <path d="M3566 5291 c-8 -12 21 -34 34 -26 17 11 11 35 -9 35 -11 0 -22 -4 -25 -9z"/> <path d="M3690 5234 c1 -15 40 -60 40 -46 0 7 -9 22 -20 34 -11 12 -20 18 -20 12z"/> <path d="M3740 5231 c0 -6 7 -11 15 -11 7 0 18 -8 24 -17 5 -10 13 -14 17 -10 5 4 3 16 -2 25 -12 19 -54 29 -54 13z"/> <path d="M3852 5206 c-30 -15 -23 -29 19 -37 42 -9 45 -6 31 26 -13 27 -16 28 -50 11z"/> <path d="M3943 5143 c-17 -36 -16 -43 6 -43 10 0 21 -7 25 -15 7 -19 36 -20 36 -1 0 8 -7 21 -15 30 -8 8 -15 24 -15 35 0 30 -23 26 -37 -6z"/> <path d="M3081 5146 c-12 -14 -7 -16 48 -16 52 0 68 -4 97 -26 19 -15 34 -32 34 -39 0 -15 63 -65 83 -65 8 0 22 9 32 20 22 24 90 27 120 6 11 -7 35 -17 53 -21 71 -15 141 -109 217 -290 9 -22 25 -51 36 -64 18 -22 22 -23 57 -12 21 7 51 11 67 9 27 -3 30 -7 33 -46 4 -54 -34 -125 -106 -199 -86 -89 -92 -103 -78 -205 9 -70 -8 -111 -67 -163 -35 -31 -41 -42 -43 -80 -1 -27 -9 -54 -23 -71 -11 -15 -21 -31 -21 -35 0 -13 -80 -89 -93 -89 -6 0 -18 -6 -26 -14 -21 -17 -109 -39 -124 -30 -85 50 -148 183 -154 328 -3 54 0 99 7 116 14 34 1 78 -43 152 -22 37 -28 58 -26 90 3 39 1 44 -30 62 -32 19 -36 19 -63 3 -17 -10 -51 -17 -81 -17 -29 0 -59 -5 -67 -11 -11 -7 13 -9 80 -8 117 2 130 -3 130 -47 0 -20 14 -59 31 -92 31 -56 31 -59 33 -207 1 -154 6 -180 51 -277 32 -68 56 -93 109 -118 41 -18 55 -20 85 -11 81 23 145 50 153 65 5 9 16 16 23 16 8 0 15 5 15 10 0 6 11 15 25 20 20 7 24 15 20 32 -3 16 5 36 25 63 35 47 80 130 80 146 0 6 9 22 20 37 18 22 20 38 18 123 l-3 97 30 23 c42 33 101 97 116 128 7 14 21 35 30 46 36 44 30 147 -11 183 -28 24 -95 52 -128 52 -30 0 -34 5 -59 58 -14 31 -32 71 -38 89 -22 57 -111 150 -163 169 -26 10 -53 22 -60 27 -7 5 -58 9 -114 9 -80 0 -106 3 -124 16 -13 9 -24 23 -24 30 0 6 -8 12 -18 12 -10 0 -22 4 -27 9 -6 5 -37 13 -70 16 -49 6 -63 4 -74 -9z"/> <path d="M2985 5102 c-11 -14 -25 -39 -32 -54 -13 -30 -82 -78 -113 -78 -11 0 -20 -4 -20 -10 0 -5 16 -10 35 -10 49 0 125 55 125 90 0 27 21 52 53 63 25 9 21 27 -5 27 -13 0 -32 -13 -43 -28z"/> <path d="M10776 5041 c-20 -29 -41 -71 -45 -94 -14 -69 -28 -94 -56 -101 -14 -4 -31 -3 -38 1 -31 20 -102 30 -156 22 -95 -14 -120 -21 -132 -35 -16 -20 -48 -17 -87 6 -26 16 -50 20 -129 20 -95 0 -96 0 -134 -35 -47 -42 -70 -44 -118 -7 -58 45 -93 55 -179 50 -80 -5 -104 -13 -173 -62 -34 -25 -44 -28 -60 -18 -10 7 -26 12 -34 12 -9 0 -18 7 -22 16 -12 31 -89 54 -178 54 -46 0 -87 -4 -90 -10 -3 -5 -15 -10 -25 -10 -11 0 -35 -13 -53 -30 -44 -39 -81 -39 -122 -1 -40 38 -84 51 -167 51 -75 0 -139 -24 -158 -60 -17 -32 -60 -25 -115 18 -47 36 -50 37 -148 40 -91 4 -103 2 -147 -22 -57 -31 -86 -23 -112 33 -59 124 -168 175 -355 167 -97 -5 -134 -22 -178 -85 l-30 -43 1 -262 c2 -289 2 -290 67 -354 21 -20 48 -35 70 -39 34 -5 42 -1 87 41 53 49 92 60 109 28 5 -10 35 -31 65 -46 l56 -28 63 31 c73 36 89 38 131 11 40 -24 137 -50 190 -50 28 0 61 13 119 46 72 42 83 45 101 33 100 -64 122 -71 214 -66 79 5 93 9 136 37 46 32 49 32 89 20 23 -8 58 -21 77 -31 19 -9 58 -21 86 -27 64 -14 163 7 206 43 39 33 71 31 125 -7 39 -28 55 -33 116 -36 93 -4 263 12 303 28 28 12 36 11 74 -9 24 -13 52 -20 64 -17 33 8 94 64 112 102 9 19 22 34 29 34 8 0 42 -24 77 -53 40 -34 82 -59 117 -70 56 -18 176 -23 185 -8 3 5 35 21 70 36 l65 28 49 -32 c27 -17 61 -31 76 -31 28 0 86 28 86 41 0 8 57 39 71 39 5 0 27 -18 51 -40 58 -53 101 -55 156 -6 54 49 72 110 60 206 -5 41 -7 93 -4 116 6 48 -25 123 -70 168 -45 45 -105 86 -126 86 -10 0 -32 7 -48 15 -23 12 -30 22 -30 45 0 21 -14 44 -52 85 -45 47 -60 56 -99 61 l-46 6 -37 -51z m143 -44 c6 -8 9 -16 7 -18 -2 -2 -7 -57 -10 -121 -5 -85 -4 -118 4 -118 6 0 28 11 48 25 55 37 125 35 174 -5 45 -37 54 -77 62 -277 l6 -143 -60 0 -60 0 0 158 c0 188 -5 202 -76 202 -36 0 -50 -5 -69 -26 -29 -31 -27 -20 -29 -194 l-1 -135 -42 -6 c-24 -3 -47 -3 -53 1 -10 6 -16 643 -5 660 9 15 91 12 104 -3z m-3009 -49 c78 -24 120 -81 120 -164 0 -73 -36 -129 -95 -144 -11 -3 -21 -13 -23 -22 -3 -16 41 -85 121 -189 40 -53 47 -95 15 -93 -10 0 -36 1 -58 2 -32 2 -42 7 -49 25 -5 12 -34 64 -65 116 -31 52 -58 102 -61 112 -7 21 -57 40 -75 29 -10 -6 -12 -37 -7 -139 4 -93 2 -133 -6 -138 -11 -7 -88 -5 -96 2 -5 6 -3 604 3 613 7 12 234 3 276 -10z m2334 -154 c31 -12 16 -108 -16 -110 -24 -1 -63 -16 -80 -32 -16 -13 -18 -35 -18 -164 l0 -149 -57 3 -56 3 -1 213 c-1 153 2 216 11 223 6 6 29 9 50 7 31 -2 39 -7 41 -25 4 -30 14 -29 64 7 46 34 41 32 62 24z m-1797 -25 c23 -11 52 -34 64 -50 26 -37 54 -148 40 -162 -6 -6 -77 -11 -163 -11 l-153 -1 2 -30 c3 -45 55 -85 110 -85 33 0 50 7 77 31 28 24 42 30 73 27 30 -2 39 -7 41 -25 4 -24 -45 -77 -97 -105 -61 -33 -183 -16 -241 34 -27 23 -51 68 -65 122 -24 92 14 190 95 245 38 25 55 30 109 31 46 0 77 -6 108 -21z m434 1 c47 -25 84 -77 67 -97 -18 -22 -72 -16 -97 11 -30 31 -77 41 -108 21 -47 -31 -13 -80 65 -92 43 -7 86 -28 125 -62 23 -21 27 -33 27 -76 0 -89 -55 -135 -164 -135 -67 0 -113 19 -159 65 -23 22 -21 62 2 75 33 17 55 12 81 -21 45 -53 150 -50 150 5 0 32 -14 42 -100 70 -40 13 -88 36 -107 50 -30 24 -33 32 -33 80 0 55 9 68 70 109 37 24 131 22 181 -3z m481 -10 c23 -17 49 -43 58 -58 21 -35 41 -134 29 -146 -5 -6 -77 -9 -165 -7 l-157 3 7 -34 c16 -85 122 -118 188 -58 27 25 40 30 73 28 53 -4 57 -30 12 -78 -69 -72 -149 -90 -242 -54 -89 34 -130 99 -130 209 0 95 23 143 88 189 47 33 57 36 124 36 65 0 78 -3 115 -30z m453 9 c59 -35 75 -80 75 -212 0 -112 1 -115 26 -131 34 -23 31 -79 -5 -84 -36 -5 -66 5 -92 33 -13 13 -27 25 -30 25 -4 0 -21 -13 -38 -29 -50 -47 -137 -47 -192 -1 -32 26 -34 31 -34 90 0 59 2 64 34 90 18 16 45 31 59 34 15 3 55 11 90 18 73 15 92 35 71 74 -25 48 -119 44 -147 -6 -14 -25 -23 -30 -54 -30 -27 0 -40 5 -48 20 -13 24 -3 45 36 80 48 43 67 49 141 50 56 0 80 -5 108 -21z m794 1 c44 -22 111 -95 111 -121 0 -20 -20 -29 -66 -29 -27 0 -36 5 -44 24 -13 36 -49 56 -99 56 -37 0 -49 -5 -77 -36 -30 -31 -34 -42 -34 -90 0 -93 42 -143 121 -144 47 0 77 21 92 63 4 9 13 20 20 23 20 7 87 -24 87 -41 0 -23 -69 -94 -111 -116 -92 -46 -227 -7 -281 82 -43 71 -43 178 2 251 53 87 187 125 279 78z"/> <path d="M7737 4863 c-4 -3 -7 -42 -7 -85 l0 -78 74 0 c71 0 75 1 101 31 58 69 5 139 -105 139 -31 0 -60 -3 -63 -7z"/> <path d="M8300 4703 c-43 -17 -78 -75 -50 -85 5 -1 51 -1 102 2 104 6 118 17 74 59 -25 23 -95 37 -126 24z"/> <path d="M9173 4688 c-20 -14 -33 -32 -33 -45 0 -22 3 -23 100 -23 114 0 133 12 88 56 -36 37 -113 43 -155 12z"/> <path d="M9730 4535 c-14 -8 -37 -14 -51 -15 -53 0 -82 -72 -36 -89 57 -22 147 33 147 90 0 33 -19 38 -60 14z"/> <path d="M4215 5060 c-16 -18 -16 -20 -2 -20 12 0 17 -9 17 -30 0 -27 3 -30 30 -30 23 0 30 -5 30 -19 0 -11 5 -23 10 -26 6 -4 8 -15 5 -26 -5 -14 -2 -19 13 -19 14 0 21 -9 26 -30 3 -18 12 -30 21 -30 20 0 20 44 0 60 -9 7 -23 29 -32 49 -9 20 -34 53 -56 73 -21 20 -36 41 -33 47 12 19 -12 20 -29 1z"/> <path d="M4056 5051 c-3 -5 0 -14 8 -20 15 -13 66 1 66 19 0 12 -67 14 -74 1z"/> <path d="M3083 5040 c-26 -11 -30 -42 -8 -60 12 -10 21 -10 41 -1 38 17 58 14 84 -14 25 -27 97 -65 121 -65 8 0 20 -5 25 -10 7 -7 20 -6 40 5 37 19 68 19 84 0 7 -8 23 -15 36 -15 26 0 94 -62 94 -85 0 -17 38 -93 51 -101 5 -3 9 -21 9 -39 0 -23 6 -38 19 -44 10 -6 22 -22 25 -35 3 -14 15 -30 26 -36 27 -15 27 -66 0 -80 -11 -6 -20 -17 -20 -25 0 -8 -5 -15 -11 -15 -5 0 -15 -13 -20 -30 -6 -16 -17 -30 -25 -30 -8 0 -14 -10 -14 -22 -4 -168 -6 -183 -33 -225 -15 -23 -35 -47 -46 -52 -19 -10 -28 -38 -38 -119 -7 -55 -38 -74 -77 -48 -29 19 -36 20 -36 6 0 -5 7 -10 16 -10 9 0 14 -6 12 -12 -7 -19 -38 -22 -38 -5 0 8 -7 20 -15 27 -9 7 -23 29 -33 49 -16 34 -17 53 -11 191 2 47 -16 139 -30 153 -6 6 -11 18 -11 27 0 9 -6 22 -12 28 -14 14 -14 16 -16 83 -2 46 -6 53 -70 112 -10 9 -28 17 -40 17 -11 0 -24 5 -27 10 -3 6 -21 10 -40 10 -19 0 -37 -4 -40 -10 -4 -6 8 -10 29 -10 19 0 37 -4 41 -9 3 -5 30 -21 60 -35 l55 -25 0 -65 c0 -36 4 -67 9 -70 5 -3 12 -18 16 -33 3 -16 14 -36 23 -46 13 -14 15 -34 12 -95 -6 -135 -3 -196 14 -227 9 -16 16 -39 16 -49 0 -32 32 -94 55 -106 30 -16 92 2 132 37 40 37 73 103 73 150 1 42 24 76 58 87 12 4 31 19 42 33 17 21 19 35 14 77 -3 28 -10 63 -14 78 -13 41 8 91 53 126 50 40 137 150 137 173 0 22 0 22 -36 9 -40 -16 -74 2 -109 58 -16 26 -31 52 -33 57 -14 39 -64 147 -72 155 -3 3 -18 24 -33 48 -17 26 -35 42 -47 42 -10 0 -43 9 -71 20 l-52 21 -27 -26 c-26 -25 -30 -26 -69 -15 -22 6 -41 14 -41 18 0 5 -24 19 -54 33 -42 18 -54 29 -53 44 2 17 -5 20 -38 22 -22 1 -50 -2 -62 -7z"/> <path d="M4822 5011 c-75 -73 -77 -79 -78 -321 -1 -118 2 -228 7 -245 4 -16 10 -47 14 -67 8 -49 81 -112 129 -112 41 0 89 34 124 87 15 23 30 45 33 50 3 4 26 -12 51 -35 132 -126 189 -140 278 -70 29 23 58 42 65 42 7 0 29 -11 49 -25 20 -14 43 -25 50 -25 7 0 26 -6 42 -14 16 -7 62 -17 102 -20 65 -6 77 -4 104 15 16 12 48 27 71 34 38 11 44 10 90 -17 59 -35 79 -35 141 -2 54 29 84 28 158 -6 57 -26 71 -25 134 7 58 29 48 30 142 -15 20 -9 56 -15 90 -14 101 2 126 2 161 2 19 0 48 9 65 20 71 45 72 46 134 14 72 -36 199 -46 250 -20 129 67 172 181 116 306 -21 46 -24 62 -15 78 20 38 13 85 -18 117 -88 92 -121 105 -236 93 -54 -6 -79 -14 -112 -38 -50 -35 -56 -36 -74 -14 -7 8 -30 24 -52 35 -34 18 -44 19 -71 8 -17 -6 -39 -21 -48 -31 -12 -14 -25 -18 -41 -14 -13 3 -32 -1 -44 -9 -19 -13 -23 -12 -56 20 -40 39 -70 44 -136 20 -37 -13 -44 -12 -87 6 -40 18 -50 19 -77 8 -18 -7 -41 -21 -53 -31 -26 -23 -75 -23 -105 1 -14 10 -43 24 -66 31 -37 11 -46 11 -83 -9 -49 -25 -85 -27 -136 -4 -22 9 -57 20 -79 24 -51 10 -195 -9 -216 -28 -33 -29 -63 -7 -99 73 -19 41 -38 74 -43 74 -4 0 -23 11 -41 25 -49 37 -79 33 -136 -21 -28 -26 -50 -53 -50 -61 0 -7 -12 -18 -27 -24 -28 -10 -41 0 -89 69 -9 12 -21 22 -28 22 -6 0 -28 11 -48 25 -57 39 -106 34 -156 -14z m144 -67 c7 -11 18 -24 24 -31 5 -7 10 -15 10 -17 0 -3 20 -35 45 -72 25 -36 45 -67 45 -69 0 -2 17 -30 39 -62 21 -32 50 -81 65 -110 24 -44 51 -71 62 -60 2 2 -1 99 -6 217 -6 125 -7 217 -2 222 5 5 31 8 58 6 l49 -3 3 -312 2 -313 -58 0 -57 0 -45 68 c-25 37 -47 72 -50 77 -3 6 -23 37 -45 70 -39 60 -54 85 -109 183 -52 93 -56 78 -49 -173 l6 -225 -56 0 -57 0 0 308 c0 170 3 312 8 316 14 15 105 0 118 -20z m1102 -167 c6 -5 12 -13 12 -17 0 -19 73 -115 88 -115 14 0 37 30 61 80 28 58 61 72 149 66 23 -2 12 -36 -26 -77 -86 -94 -122 -137 -122 -146 0 -13 55 -81 109 -136 79 -80 75 -106 -14 -96 -50 6 -73 23 -96 69 -37 77 -72 105 -86 68 -3 -10 -18 -34 -32 -53 -14 -19 -31 -44 -37 -55 -17 -31 -144 -45 -144 -16 0 4 21 33 48 63 26 30 64 75 84 100 21 24 40 47 43 49 2 3 -36 52 -85 109 -50 57 -90 107 -90 111 0 4 6 10 13 12 18 8 110 -4 125 -16z m-280 -4 c44 -27 82 -66 82 -83 0 -8 7 -26 16 -38 9 -14 14 -38 12 -64 l-3 -42 -160 -1 c-154 0 -160 -1 -163 -21 -2 -12 11 -34 33 -57 31 -32 42 -37 80 -37 35 0 52 6 78 30 26 23 44 30 75 30 49 0 54 -6 37 -47 -9 -21 -34 -46 -71 -69 -50 -32 -65 -37 -116 -36 -73 1 -139 38 -181 100 -25 38 -28 50 -28 128 0 64 4 91 16 103 8 10 15 22 15 27 0 14 49 58 85 77 42 22 157 22 193 0z m774 -133 c-3 -132 -1 -148 17 -177 18 -29 26 -33 65 -33 82 0 98 35 96 198 -1 70 -2 135 -1 145 1 15 9 18 54 15 l52 -3 0 -220 0 -220 -41 -3 c-35 -3 -44 1 -58 22 l-16 25 -36 -24 c-44 -30 -101 -33 -154 -7 -70 33 -75 47 -78 235 -2 93 -1 175 2 183 4 11 18 14 53 12 l48 -3 -3 -145z m646 132 c40 -23 85 -79 79 -96 -3 -7 -23 -16 -44 -18 -31 -4 -42 -1 -58 18 -28 33 -68 46 -104 33 -31 -11 -44 -30 -35 -53 6 -15 73 -46 98 -46 28 0 106 -41 125 -67 44 -55 16 -149 -55 -188 -71 -38 -204 -12 -253 51 -27 34 -26 49 1 68 35 25 65 20 80 -11 25 -54 139 -57 146 -4 4 25 -23 61 -46 61 -34 0 -136 45 -163 72 -50 51 -33 133 37 178 40 25 152 27 192 2z"/> <path d="M5643 4703 c-24 -5 -63 -47 -63 -69 0 -11 22 -14 99 -14 101 0 117 6 107 38 -13 39 -74 58 -143 45z"/> <path d="M4130 4983 c0 -5 5 -15 10 -23 8 -13 10 -13 10 2 0 9 6 19 13 21 6 3 2 6 -10 6 -13 1 -23 -2 -23 -6z"/> <path d="M3020 4950 c0 -5 6 -10 14 -10 8 0 18 5 21 10 3 6 -3 10 -14 10 -12 0 -21 -4 -21 -10z"/> <path d="M4060 4950 c0 -5 7 -10 15 -10 8 0 15 5 15 10 0 6 -7 10 -15 10 -8 0 -15 -4 -15 -10z"/> <path d="M4190 4935 c-10 -12 -9 -16 3 -21 9 -3 23 -2 31 3 13 7 13 10 -3 20 -15 10 -22 9 -31 -2z"/> <path d="M2952 4918 c-15 -15 -16 -38 -2 -38 6 0 10 4 10 9 0 5 9 11 20 14 11 3 20 10 20 16 0 15 -33 14 -48 -1z"/> <path d="M4126 4884 c-4 -9 -4 -19 -2 -21 8 -8 26 8 26 23 0 19 -16 18 -24 -2z"/> <path d="M2838 4859 c-18 -10 -25 -39 -9 -39 5 0 14 7 21 15 7 8 21 15 31 15 11 0 19 5 19 10 0 13 -40 12 -62 -1z"/> <path d="M4166 4842 c-3 -5 -3 -26 1 -46 4 -27 10 -36 20 -32 8 4 19 6 24 6 15 0 10 30 -6 36 -8 4 -15 15 -15 25 0 19 -15 26 -24 11z"/> <path d="M4345 4780 l-30 -7 30 -4 c27 -4 30 -8 33 -47 2 -26 9 -45 18 -49 9 -3 14 -20 14 -48 0 -30 5 -45 16 -49 15 -6 15 -8 -1 -26 -16 -18 -16 -20 -1 -26 20 -8 21 -30 1 -38 -13 -4 -12 -9 3 -36 16 -29 16 -32 0 -44 -22 -16 -22 -34 -3 -60 13 -17 13 -22 -2 -38 -15 -17 -15 -19 2 -32 16 -12 16 -13 1 -19 -10 -4 -16 -18 -16 -37 0 -22 -6 -33 -22 -39 l-22 -8 23 -12 c21 -12 21 -14 7 -30 -9 -10 -16 -34 -16 -54 0 -25 -5 -37 -14 -37 -18 0 -46 -43 -46 -71 0 -25 -40 -109 -52 -109 -4 0 -8 -7 -8 -15 0 -9 -7 -18 -15 -21 -8 -4 -15 -17 -15 -29 0 -15 -8 -26 -20 -30 -11 -3 -20 -13 -20 -21 0 -8 -4 -14 -10 -14 -5 0 -10 -7 -10 -15 0 -9 -7 -18 -15 -21 -15 -6 -22 -44 -7 -44 22 1 142 160 142 190 0 5 5 10 10 10 6 0 14 8 17 18 4 9 17 34 30 54 12 20 25 55 29 77 3 22 13 42 20 45 9 3 14 21 14 45 0 22 5 43 10 46 6 3 10 14 10 24 0 10 7 24 15 31 9 7 15 29 15 49 0 20 0 64 0 98 0 34 4 72 9 85 13 35 -20 224 -46 263 -7 11 -13 27 -13 37 0 21 -21 68 -29 67 -3 -1 -19 -5 -36 -9z"/> <path d="M4257 4763 c-14 -13 -6 -33 12 -33 25 0 38 20 20 31 -17 11 -24 11 -32 2z"/> <path d="M4215 4720 c-18 -8 -17 -9 8 -9 16 -1 26 3 22 9 -3 6 -7 10 -8 9 -1 0 -11 -4 -22 -9z"/> <path d="M2697 4713 c-11 -10 -8 -71 3 -78 6 -4 10 12 10 39 0 47 -2 51 -13 39z"/> <path d="M2790 4683 c0 -5 7 -18 15 -29 8 -10 15 -29 15 -41 0 -13 5 -23 10 -23 14 0 12 17 -6 56 -16 34 -34 53 -34 37z"/> <path d="M4183 4663 c-22 -8 -15 -35 6 -28 14 4 25 -1 36 -19 19 -28 89 -46 108 -27 8 8 3 11 -20 11 -23 0 -38 8 -55 29 -24 29 -53 43 -75 34z"/> <path d="M2880 4554 c0 -21 30 -32 79 -27 64 6 77 11 63 25 -16 16 -142 18 -142 2z"/> <path d="M4217 4563 c-4 -3 -7 -20 -7 -36 0 -26 3 -29 23 -22 12 3 47 12 77 19 l55 13 -42 7 c-23 4 -47 5 -53 1 -6 -4 -19 0 -29 9 -10 9 -21 13 -24 9z"/> <path d="M2780 4512 c0 -5 10 -18 23 -30 24 -23 57 -30 57 -12 0 6 -6 10 -13 10 -8 0 -22 9 -32 20 -19 21 -35 26 -35 12z"/> <path d="M4250 4487 c0 -2 7 -18 15 -33 8 -16 15 -42 15 -57 0 -19 4 -27 13 -24 7 2 12 22 12 48 0 40 2 44 30 50 27 6 26 7 -10 6 -22 0 -48 3 -57 7 -10 5 -18 6 -18 3z"/> <path d="M4240 4355 c0 -8 7 -15 15 -15 8 0 15 7 15 15 0 8 -7 15 -15 15 -8 0 -15 -7 -15 -15z"/> <path d="M4272 4318 c-16 -16 -15 -30 2 -64 8 -15 13 -31 10 -35 -5 -9 35 -23 44 -15 3 4 -2 20 -12 36 -9 17 -14 35 -11 40 7 12 -3 50 -14 50 -4 0 -12 -5 -19 -12z"/> <path d="M4375 4270 c-3 -5 -4 -10 -1 -10 2 0 11 -3 20 -6 11 -4 16 -1 16 10 0 18 -25 22 -35 6z"/> <path d="M4195 4190 c9 -27 -3 -60 -21 -60 -8 0 -14 -4 -14 -10 0 -5 5 -10 11 -10 20 0 49 21 49 35 0 8 4 15 9 15 5 0 16 11 25 25 l16 25 -40 0 c-37 0 -41 -2 -35 -20z"/> <path d="M4280 4153 c0 -5 -14 -16 -30 -25 -28 -16 -42 -48 -21 -48 15 0 81 66 74 74 -9 8 -23 8 -23 -1z"/> <path d="M5376 4069 c-45 -35 -76 -38 -115 -12 -50 34 -91 30 -135 -12 -46 -43 -65 -44 -109 -5 -19 17 -42 30 -50 30 -37 0 -107 -44 -107 -67 0 -7 -4 -13 -10 -13 -5 0 -10 -6 -10 -13 0 -7 -9 -33 -21 -57 -18 -37 -20 -49 -10 -81 18 -60 47 -76 137 -77 56 -1 87 4 116 18 40 19 40 19 68 -2 36 -26 68 -19 120 28 l39 35 41 -40 c41 -39 42 -40 112 -38 47 1 73 6 76 15 2 6 -3 12 -10 12 -19 0 -54 38 -63 69 -9 28 -22 16 -27 -24 -3 -31 -23 -42 -48 -25 -12 7 -14 28 -12 102 2 51 6 96 8 100 3 5 27 8 53 8 37 0 52 -5 69 -23 26 -27 28 -59 7 -77 -21 -17 -19 -37 5 -57 11 -10 20 -23 20 -30 0 -15 51 -43 78 -43 11 0 22 -7 26 -15 8 -22 28 -18 55 10 23 25 65 33 76 15 24 -39 154 -52 195 -20 32 25 72 25 94 2 13 -16 30 -19 97 -18 78 2 82 3 111 34 16 18 31 47 35 64 5 27 9 29 36 24 16 -3 51 -6 78 -6 47 0 49 -1 49 -28 0 -22 11 -36 49 -65 26 -20 59 -37 73 -37 58 0 145 92 132 140 -4 14 -8 41 -9 61 -5 70 -107 143 -166 119 -15 -7 -35 -23 -44 -36 -19 -29 -51 -31 -85 -4 -33 26 -39 25 -88 -11 -40 -30 -42 -30 -69 -13 -15 10 -40 29 -55 42 -34 31 -64 25 -117 -23 l-38 -35 -42 20 c-22 11 -41 27 -41 35 0 9 -10 15 -24 15 -14 0 -27 4 -30 9 -3 5 -25 5 -48 0 -24 -4 -46 -8 -50 -9 -5 0 -8 -6 -8 -14 0 -29 -55 -34 -107 -9 -35 16 -37 16 -74 -5 -41 -24 -57 -22 -104 13 -23 17 -86 45 -100 45 -1 0 -14 -9 -29 -21z m1012 -101 c-3 -56 -5 -63 -25 -66 -24 -4 -36 22 -35 71 1 35 18 57 44 57 17 0 19 -6 16 -62z m-1406 30 c8 -13 18 -38 22 -57 3 -19 13 -42 21 -51 8 -9 16 -31 17 -50 3 -29 -1 -36 -18 -38 -14 -2 -24 5 -32 23 -9 18 -19 25 -41 25 -16 0 -31 -6 -34 -14 -3 -8 -18 -23 -32 -32 -37 -24 -52 -7 -32 37 43 95 57 129 57 141 0 39 50 50 72 16z m293 2 c0 -8 -16 -22 -34 -31 -35 -16 -35 -16 -13 -30 31 -19 28 -45 -7 -57 -23 -8 -28 -15 -24 -34 5 -28 -19 -53 -42 -44 -12 4 -15 25 -15 104 0 54 3 102 7 106 4 4 34 6 68 4 45 -2 60 -7 60 -18z m393 -92 c-3 -107 -4 -113 -25 -116 -21 -3 -22 0 -25 100 -2 57 -1 109 1 116 2 6 14 12 27 12 l25 0 -3 -112z m268 91 c35 -21 43 -46 22 -67 -9 -9 -20 -6 -49 10 -55 30 -89 10 -75 -46 8 -33 26 -37 71 -16 56 26 78 13 55 -30 -10 -19 -63 -50 -85 -50 -17 0 -55 21 -82 45 -36 31 -32 100 8 143 36 39 84 43 135 11z m252 -27 c12 -26 22 -54 22 -62 1 -8 7 -24 15 -34 38 -50 -1 -101 -39 -53 -27 34 -54 34 -81 3 -28 -34 -59 -38 -63 -8 -2 13 3 31 12 41 9 10 19 32 22 49 4 18 11 35 15 38 5 3 9 18 9 33 0 34 6 41 39 41 21 -1 30 -10 49 -48z m443 26 c10 -13 18 -29 19 -35 0 -16 -52 -17 -68 -1 -6 6 -15 8 -19 4 -9 -9 33 -46 52 -46 6 0 20 -9 30 -20 27 -30 13 -63 -35 -84 -37 -16 -44 -16 -78 -3 -37 15 -50 40 -34 65 7 10 15 9 40 -5 23 -13 34 -15 42 -7 8 8 -2 18 -37 35 -37 19 -49 30 -51 51 -7 61 97 95 139 46z"/> <path d="M4945 3920 c-4 -6 -3 -16 3 -22 6 -6 12 -6 17 2 4 6 3 16 -3 22 -6 6 -12 6 -17 -2z"/> <path d="M6137 3914 c-8 -8 1 -24 14 -24 5 0 9 7 9 15 0 15 -12 20 -23 9z"/> <path d="M7917 4070 c-15 -4 -41 -20 -57 -34 -17 -14 -37 -23 -44 -20 -8 3 -17 1 -21 -5 -4 -7 -18 -2 -40 15 -35 26 -75 29 -83 7 -2 -9 8 -13 33 -13 l36 0 -1 -67 c-2 -95 -3 -92 28 -90 23 2 27 -2 30 -27 2 -16 -2 -32 -10 -37 -17 -11 -79 0 -97 17 -13 12 -15 28 -19 148 -2 48 -2 48 -32 43 -16 -4 -32 -2 -35 3 -3 6 -14 10 -24 10 -10 0 -26 9 -36 20 -24 27 -61 25 -119 -4 -52 -26 -64 -25 -112 11 -18 14 -45 23 -65 23 -36 0 -107 -31 -120 -52 -6 -9 -15 -6 -36 14 -27 26 -30 26 -117 19 -98 -7 -107 -14 -133 -90 -17 -49 -1 -127 34 -163 32 -34 53 -41 84 -30 14 5 37 5 57 0 28 -8 37 -6 63 16 17 14 34 26 38 26 4 0 28 -14 53 -30 40 -26 51 -29 92 -24 25 4 46 10 46 15 0 5 9 13 21 19 16 9 26 8 47 -7 36 -24 198 -28 211 -5 11 19 57 19 80 -2 11 -10 35 -16 64 -16 37 0 53 6 80 30 38 33 41 32 109 -14 27 -18 28 -18 67 13 48 38 60 39 102 1 40 -35 42 -35 75 -13 21 13 30 14 45 5 63 -39 134 42 130 148 -1 48 -20 81 -64 114 -23 17 -31 18 -47 8 -31 -19 -68 -15 -81 10 l-11 21 -17 -20 c-24 -30 -74 -36 -103 -13 -31 24 -66 31 -101 20z m-955 -92 c2 -35 7 -43 23 -43 15 0 21 8 25 34 5 37 28 58 53 48 20 -8 22 -191 1 -207 -22 -19 -55 10 -52 45 3 26 0 30 -22 30 -22 0 -26 -5 -30 -40 -4 -35 -8 -40 -30 -40 -24 0 -25 2 -28 85 -4 109 1 130 33 130 21 0 24 -5 27 -42z m356 20 c-2 -14 -12 -24 -27 -28 -34 -8 -36 -24 -5 -38 33 -16 26 -36 -15 -42 -43 -7 -44 -24 -1 -28 43 -4 54 -14 45 -41 -5 -18 -14 -21 -60 -21 -68 0 -75 11 -75 114 0 106 0 106 77 106 61 0 64 -1 61 -22z m210 -15 c2 -18 7 -33 13 -33 5 0 9 -6 9 -13 0 -7 9 -29 20 -50 22 -40 26 -82 10 -92 -6 -4 -25 7 -42 24 -38 38 -57 39 -88 6 -33 -35 -60 -33 -60 4 0 16 7 34 15 41 8 7 15 20 15 29 0 9 6 25 14 36 7 11 17 35 21 53 6 30 10 33 38 30 28 -3 32 -7 35 -35z m482 16 c0 -12 -8 -28 -17 -35 -14 -10 -18 -28 -18 -86 0 -67 -2 -73 -21 -76 -38 -5 -53 21 -47 85 5 50 2 61 -16 77 -11 11 -21 27 -21 38 0 16 9 18 70 18 65 0 70 -2 70 -21z m148 -19 c4 -44 15 -55 40 -41 13 7 22 23 24 44 2 27 8 33 31 35 l27 3 0 -110 c0 -102 -2 -111 -19 -111 -26 0 -44 26 -37 54 6 25 -7 36 -45 36 -14 0 -19 -7 -19 -29 0 -54 -26 -81 -47 -49 -8 14 -13 188 -6 201 3 5 15 7 26 5 17 -2 23 -11 25 -38z m-318 -21 c0 -5 -7 -9 -15 -9 -15 0 -20 12 -9 23 8 8 24 -1 24 -14z"/> <path d="M8604 4072 c-32 -2 -49 -11 -80 -43 -39 -40 -39 -40 -37 -115 2 -71 4 -78 35 -110 34 -35 96 -59 127 -49 10 3 28 16 40 29 20 21 27 23 62 15 22 -5 56 -18 77 -29 44 -24 58 -25 96 -5 15 8 35 15 42 15 8 0 25 7 39 16 22 14 26 14 49 -1 14 -10 26 -21 26 -25 0 -4 11 -11 25 -14 28 -7 105 12 105 25 0 5 9 13 20 19 16 8 26 6 49 -11 16 -12 49 -25 73 -29 35 -7 49 -5 75 12 18 11 37 26 41 35 5 8 24 17 41 19 26 3 37 -2 58 -26 32 -39 49 -38 97 6 l38 35 34 -23 c19 -13 34 -26 34 -30 0 -4 9 -12 21 -19 18 -9 26 -6 53 20 l32 31 55 -27 c73 -35 148 -42 191 -16 57 34 79 35 101 7 17 -23 25 -25 66 -20 30 4 54 1 70 -8 23 -13 29 -11 77 25 l53 39 29 -25 c37 -31 76 -46 99 -39 79 26 129 72 118 109 -3 11 -8 40 -11 65 -9 67 -44 113 -100 129 -42 13 -48 12 -72 -6 -43 -32 -71 -37 -106 -20 -17 8 -67 20 -111 25 -73 9 -82 9 -107 -10 -33 -23 -83 -19 -143 12 -29 15 -42 16 -73 7 -20 -6 -48 -18 -62 -27 -43 -29 -75 -32 -95 -10 -22 24 -50 25 -89 5 -37 -20 -49 -19 -71 5 -29 32 -80 42 -125 24 -21 -9 -41 -22 -44 -30 -7 -19 -29 -18 -69 6 -28 16 -40 18 -61 10 -18 -7 -33 -7 -46 0 -10 5 -26 10 -36 10 -16 0 -54 -35 -72 -66 -7 -13 -12 -12 -33 10 -13 14 -32 26 -41 26 -9 0 -20 5 -23 10 -10 17 -55 11 -82 -10 -33 -25 -44 -25 -78 2 -15 12 -35 22 -44 23 -9 1 -26 7 -38 13 -24 13 -57 3 -102 -30 -25 -19 -86 -24 -96 -8 -16 25 -62 45 -101 42z m71 -82 c21 -22 25 -31 14 -34 -8 -2 -21 -6 -29 -9 -8 -2 -23 2 -33 11 -9 8 -20 12 -23 9 -9 -8 15 -37 30 -37 15 0 66 -48 66 -61 0 -18 -61 -69 -81 -69 -11 0 -27 4 -37 9 -9 5 -25 12 -34 15 -22 7 -24 54 -3 62 8 3 22 -1 30 -10 19 -19 59 -22 53 -3 -3 6 -13 14 -24 16 -33 6 -74 41 -74 64 0 34 39 67 80 67 27 0 43 -7 65 -30z m271 8 c64 -76 56 -137 -25 -185 l-41 -24 -38 23 c-80 49 -92 97 -42 166 28 39 33 42 78 42 38 0 53 -5 68 -22z m203 -46 c-2 -78 3 -92 30 -85 24 6 35 -11 27 -43 -6 -21 -12 -24 -55 -24 -27 0 -53 6 -58 13 -11 13 -23 173 -16 195 3 6 20 12 40 12 l34 0 -2 -68z m201 -6 c0 -77 10 -97 37 -75 11 10 14 26 10 63 -6 67 0 86 30 86 24 0 24 -1 21 -91 l-3 -90 -36 -21 c-33 -18 -40 -19 -67 -7 -44 19 -62 57 -62 131 0 36 3 68 7 71 3 4 19 7 35 7 l28 0 0 -74z m340 57 c0 -9 -11 -29 -25 -43 -23 -24 -24 -30 -16 -74 8 -42 6 -51 -14 -73 -14 -17 -28 -24 -38 -20 -14 5 -17 21 -17 87 0 77 -1 81 -25 90 -24 9 -32 29 -18 43 3 4 39 7 80 7 62 0 73 -3 73 -17z m150 -98 c0 -104 -2 -115 -18 -115 -10 0 -27 6 -37 14 -17 12 -19 25 -16 107 3 97 8 109 49 109 22 0 22 -2 22 -115z m268 84 c27 -25 32 -37 32 -76 0 -39 -5 -50 -36 -79 -38 -36 -69 -42 -107 -21 -52 29 -57 38 -57 101 0 57 2 62 33 84 46 32 94 29 135 -9z m191 10 c11 -12 27 -37 36 -56 21 -43 30 -35 30 25 0 46 1 47 30 47 l30 0 -3 -95 c-5 -111 -15 -131 -56 -105 -15 10 -26 27 -26 40 0 14 -11 30 -26 40 l-27 17 6 -42 c7 -54 1 -70 -29 -70 -24 0 -24 1 -24 103 0 57 3 107 7 110 12 13 32 7 52 -14z m358 -1 c13 -12 23 -27 23 -35 0 -15 -56 -18 -65 -3 -9 14 -27 12 -23 -2 3 -7 22 -22 44 -33 33 -17 39 -25 42 -57 3 -32 -1 -38 -29 -52 -40 -20 -50 -20 -94 1 -26 12 -35 23 -35 41 0 22 3 24 28 18 45 -11 61 -12 64 -1 2 6 -8 12 -22 13 -29 4 -70 39 -70 59 0 8 10 27 22 43 27 38 80 41 115 8z"/> <path d="M8856 3954 c-20 -20 -21 -68 -1 -84 22 -19 65 -4 66 23 2 37 -2 51 -19 64 -22 16 -28 16 -46 -3z"/> <path d="M10013 3953 c-51 -35 -9 -113 45 -84 33 17 37 49 11 77 -26 28 -27 28 -56 7z"/> <path d="M4183 4057 c-4 -8 -16 -16 -25 -20 -15 -5 -16 -10 -6 -32 6 -14 19 -25 29 -25 21 0 38 22 21 28 -15 5 -16 32 -2 32 6 0 10 7 10 15 0 19 -16 20 -27 2z"/> <path d="M4131 3970 c-24 -14 24 -70 60 -70 16 0 29 -4 29 -10 0 -5 5 -10 10 -10 27 0 5 28 -30 40 -27 9 -40 19 -40 31 0 22 -12 30 -29 19z"/> <path d="M4220 3972 c0 -14 11 -21 26 -15 21 8 17 23 -6 23 -11 0 -20 -4 -20 -8z"/> <path d="M4040 3955 c0 -8 7 -18 15 -21 8 -3 17 -15 21 -26 4 -13 9 -17 16 -10 7 7 6 19 -4 38 -15 32 -48 45 -48 19z"/> <path d="M5422 3956 c1 -10 8 -17 13 -17 15 1 12 24 -3 29 -9 3 -13 -2 -10 -12z"/> <path d="M11150 3880 c19 -13 30 -13 30 0 0 6 -10 10 -22 10 -19 0 -20 -2 -8 -10z"/> <path d="M4097 3858 c-31 -17 -19 -31 20 -25 27 5 40 2 50 -11 13 -16 14 -16 11 1 -4 24 -59 48 -81 35z"/> <path d="M10755 3857 c-4 -10 -5 -21 -1 -24 10 -10 18 4 13 24 -4 17 -4 17 -12 0z"/> <path d="M4020 3804 c0 -28 6 -30 26 -10 19 19 18 23 -6 29 -16 4 -20 0 -20 -19z"/> <path d="M4058 3773 c-11 -3 -18 -14 -18 -29 0 -27 24 -33 34 -9 3 8 13 15 22 15 13 0 14 3 4 15 -7 8 -15 14 -19 14 -3 -1 -14 -3 -23 -6z"/> <path d="M3950 3735 c0 -8 7 -15 15 -15 8 0 15 7 15 15 0 8 -7 15 -15 15 -8 0 -15 -7 -15 -15z"/> <path d="M3900 3701 c0 -5 5 -13 10 -16 6 -3 10 -13 10 -21 0 -16 -36 -19 -45 -4 -3 6 -18 10 -33 10 l-27 0 21 -18 c12 -9 24 -26 28 -37 7 -19 8 -19 17 -2 6 11 22 17 43 17 l34 0 -13 38 c-12 33 -45 58 -45 33z"/> <path d="M3984 3694 c3 -9 6 -18 6 -20 0 -2 5 -4 10 -4 6 0 10 9 10 20 0 12 -7 20 -16 20 -11 0 -14 -5 -10 -16z"/> <path d="M4057 3595 c-32 -37 -44 -45 -73 -45 -28 0 -35 -4 -40 -25 -4 -17 -19 -31 -42 -41 -19 -8 -42 -23 -49 -34 -9 -12 -26 -20 -44 -20 -17 0 -32 -6 -35 -15 -4 -10 -20 -15 -50 -15 -32 0 -44 -4 -44 -15 0 -8 -7 -15 -15 -15 -9 0 -18 -7 -21 -15 -5 -12 -25 -15 -90 -15 -68 0 -84 -3 -84 -15 0 -22 -40 -19 -40 3 -1 16 -1 16 -14 0 -7 -10 -17 -18 -21 -18 -4 0 -14 8 -21 18 -13 16 -13 16 -14 0 0 -15 -9 -18 -49 -18 -34 0 -51 4 -55 15 -7 20 -22 19 -30 -1 -9 -23 -3 -27 57 -35 39 -5 56 -3 69 8 9 8 19 10 22 5 7 -12 94 -13 102 -1 3 5 27 9 54 9 48 0 107 17 162 46 14 8 37 14 51 14 13 0 30 7 37 15 7 8 17 12 22 9 7 -5 78 36 98 56 10 11 115 80 121 80 7 0 109 99 109 106 0 2 -8 4 -17 4 -10 -1 -35 -21 -56 -45z"/> <path d="M3765 3610 c-22 -4 -34 -8 -27 -9 6 0 12 -9 12 -18 1 -17 1 -17 11 0 14 24 38 21 48 -6 12 -31 37 -51 56 -43 13 5 10 11 -15 36 -16 16 -30 34 -30 40 0 5 -3 9 -7 9 -5 -1 -26 -5 -48 -9z"/> <path d="M3623 3536 c-23 -23 -21 -36 4 -36 7 0 13 7 13 15 0 9 7 18 15 21 8 4 15 10 15 15 0 17 -25 9 -47 -15z"/> <path d="M3707 3539 c-10 -11 -15 -24 -11 -27 4 -4 9 -1 11 6 6 17 30 15 37 -3 3 -8 15 -15 26 -15 11 0 20 7 20 15 0 9 -9 15 -21 15 -12 0 -27 7 -33 15 -10 14 -13 13 -29 -6z"/> <path d="M3522 3518 c-18 -18 -14 -38 8 -38 15 0 20 7 20 25 0 27 -9 32 -28 13z"/> <path d="M3420 3491 c0 -5 9 -11 20 -14 24 -6 27 8 4 17 -21 8 -24 8 -24 -3z"/> <path d="M3644 3485 c-4 -9 -19 -15 -39 -15 -24 0 -34 -5 -38 -20 -4 -14 -14 -20 -34 -20 -27 -1 -27 -1 11 -20 47 -24 52 -25 36 -5 -19 23 -4 45 30 45 16 0 30 5 30 10 0 6 7 10 15 10 8 0 15 7 15 15 0 8 -5 15 -10 15 -6 0 -13 -7 -16 -15z"/> <path d="M3714 3485 c-4 -8 -12 -15 -20 -15 -8 0 -14 -4 -14 -10 0 -5 11 -10 24 -10 22 0 36 16 36 41 0 15 -20 10 -26 -6z"/> <path d="M3322 3474 c1 -9 9 -19 16 -22 9 -3 13 2 10 14 -1 9 -9 19 -16 22 -9 3 -13 -2 -10 -14z"/> <path d="M3361 3421 c-18 -29 -30 -55 -27 -58 8 -9 46 37 46 56 0 11 5 21 12 23 6 2 9 10 6 18 -2 8 -17 -8 -37 -39z"/> <path d="M3143 3415 c-10 -22 -9 -25 6 -25 10 0 26 8 35 19 15 17 15 19 1 25 -25 9 -29 8 -42 -19z"/> <path d="M3267 3416 c-7 -19 3 -57 14 -51 4 3 6 12 3 20 -4 8 1 18 10 21 9 3 16 10 16 15 0 15 -37 10 -43 -5z"/> <path d="M3115 3330 c3 -5 19 -10 36 -10 16 0 29 5 29 10 0 6 -16 10 -36 10 -21 0 -33 -4 -29 -10z"/> </g> </svg> 